P3
# Przykladowy obrazek PPM 2x2
2 2

255

1 1 1 255 01 1
1 1 1 12 1 9