P3
# Przykladowy obrazek PPM 2x2
3 3

255

255 255 255 0 0 0 1 1 1
255 255 255 3 3 3 255 255 255
0 0 0 43 231 12 255 255 255